Patient4_TMGait_0pt2_02_left_20_EMG.mot
version=1
nRows=19
nColumns=33
inDegrees=no
endheader
time	1LAddLong	2LGlutMax	3LGlutMed	4LIliopsoas	5LSemiMemb	6LBicFemLong	7LRecFem	8LVastMed	9LVastLat	10LGasMed	11LTibAnt	12lTibPost	13LPeroneusLong	14LSol	15LExtDigLong	16LFlexDigLong	17RAddLong	18RGlutMax	19RGlutMed	20RIliopsoas	21RSemiMemb	22RBicFemLong	23RRecFem	24RVastMed	25RVastLat	26RGasMed	27RTibAnt	28RTibPost	29RPeroneusLong	30RSol	31RExtDigLong	32RFlexDigLong
46.05	0.000458	-0.028534	0.024414	0.017548	-0.063629	-0.27222	-0.071106	0.006866	0.070953	0.058136	-0.001373	-0.002899	0.28656	-0.000458	0.003357	-0.010986	-0.026398	-0.070801	-0.067749	0.14877	-0.22507	-0.012512	-0.062256	-0.030212	-0.031738	-0.002747	-0.010376	-0.002899	0.007935	0.082245	-0.000153	-0.019531
46.051	-0.014496	-0.019989	0.012512	-0.003967	-0.035553	-0.37964	-0.048065	0.010071	0.016937	0.083008	0.004272	0.000916	0.31433	0.019379	0.032196	-0.016632	-0.028076	-0.15137	0.044403	0.093536	0.22873	0.007629	-0.054169	-0.030212	-0.037994	0	-0.030212	-0.002289	-0.041199	-0.031586	-0.000153	-0.009918
46.052	-0.018616	0.004883	-0.01236	-0.001831	0.056	-0.40344	-0.045013	0.005188	0.045166	0.083466	0.011444	-0.001221	0.29572	0.023041	0.039978	0.005798	-0.013733	-0.075836	-0.026093	0.09903	0.48721	-0.062408	0.051422	-0.036316	-0.080719	0.002594	-0.041809	-0.00824	-0.024414	-0.14801	0.000305	-0.011292
46.053	-0.016327	0.056915	-0.043945	-0.010223	0.017853	-0.1062	-0.035858	0.005798	0.015717	0.065155	0.023651	0.003662	-0.040741	0.071259	0.063934	0.001984	-0.006256	-0.037231	0.21881	0.21988	0.20386	-0.16007	0.03067	-0.046082	-0.068665	0.002747	-0.024261	0.001221	-0.063782	-0.20721	0.002594	-0.0177
46.054	-0.000305	0.011139	-0.001678	0.006561	-0.002136	0.029755	-0.057983	-0.000458	-0.019989	0.006866	0.042419	0.003204	-0.50125	0.050507	0.033875	-0.008545	-0.021973	-0.0354	0.35355	0.20859	0.035706	-0.065765	-0.079041	-0.042572	-0.054779	0.005341	-0.001831	-0.000458	-0.036926	-0.1413	-0.002899	-0.012054
46.055	0.021057	0.006561	0.045929	0.019531	0.076141	0.12817	-0.071564	-0.009766	0.003967	0.019073	-0.00351	-0.001984	-0.002899	-0.010681	-0.034943	-0.000916	-0.054626	-0.12802	0.38498	0.21103	-0.12222	0.052795	-0.26154	-0.044861	0.007782	0.011292	-0.00885	-0.002594	-0.007324	-0.081177	-0.003357	-0.021057
46.056	0.02533	-0.021057	0.067749	0.007935	0.058136	0.14313	-0.066528	-0.001068	0.018158	0.12375	-0.02243	-0.011444	0.06073	-0.018463	-0.055542	-0.011749	-0.027313	-0.09079	0.10941	0.14481	-0.20676	0.12161	-0.28854	0.018463	0.13153	0.00885	-0.008392	-0.007629	0.028229	-0.053406	0.00412	-0.01297
46.057	0.014038	-0.035553	0.007782	0.016022	0.005798	0.09903	-0.062103	-0.006104	0.030365	0.075531	-0.018158	0.000458	0.23468	-0.010834	-0.084381	0.013123	0.003357	-0.028534	0.14603	-0.00412	-0.097504	0.063324	-0.13092	0.031281	0.13962	0.015869	-0.032806	-0.00412	0.11063	-0.21591	-0.001373	-0.011292
46.058	0.010071	-0.018005	-0.010071	-0.006714	0.045319	0.068207	-0.063171	-0.003967	0.042267	0.095673	-0.003662	-0.002441	0.1767	0.003815	-0.029297	-0.006866	-0.001526	0.019379	-0.020447	0.00473	-0.064087	0.072937	0.023499	-0.054626	0.036469	0.02533	-0.015259	-0.001678	-0.11627	-0.23438	0.001068	-0.021057
46.059	0.007172	-0.016174	-0.034637	-0.003967	0.045166	0.042419	-0.022583	-0.002289	0.018311	0.20508	0.013275	-0.001373	0.21668	-0.099945	0.024414	-0.00061	0.005798	-0.037842	-0.38116	-0.026093	-0.032959	0.093689	-0.002289	-0.096741	0.015106	0.007019	-0.011597	-0.002289	-0.22522	0.17181	-0.001831	-0.011292
46.06	-0.008698	0.031433	-0.002136	-0.001221	0.021973	0.13763	-0.002136	0	0.00412	0.19363	0.003662	-0.005035	0.048218	-0.10925	-0.009003	0.003204	0.012512	-0.037537	-0.47638	-0.020905	-0.023956	0.06958	-0.035858	-0.00946	0.003662	0.007019	-0.066833	-0.013733	0.005035	-0.17654	0.003052	-0.015717
46.061	-0.010223	0.026703	0.10437	0.015411	0.010834	0.063934	-0.05188	0.002899	0.000916	-0.064087	-0.016174	-0.003052	0.10162	-0.022736	0.030212	-0.002289	0.009155	-0.11276	-0.38284	-0.050964	0.065613	-0.028381	-0.022125	0.07431	0.007019	-0.016785	-0.058136	-0.065613	-0.051422	-0.17517	0.002441	-0.012512
46.062	-0.010681	0.063629	0.062866	0.012512	0.014343	-0.06134	-0.079193	0.000763	-0.086365	0.049133	-0.008392	0.001221	-0.11215	0.008392	0.039978	-0.000916	0.012817	-0.038605	-0.1564	-0.052185	0.11337	-0.09201	0.030365	0.003662	0.002899	-0.035095	-0.037994	-0.099182	0.044098	0.1062	-0.002136	-0.014954
46.063	-0.005341	0.12436	0.020752	0.014801	-0.011292	0.022888	-0.11017	0.003815	-0.10147	-0.047302	-0.00351	-0.00885	-0.074005	-0.072327	0.00946	-0.000305	-0.005493	-0.045929	-0.026703	-0.11658	0.067749	-0.12955	-0.034943	-0.017242	-0.009766	-0.026398	-0.055237	-0.014954	0.30655	0.099487	-0.002747	-0.011902
46.064	-0.015564	0.18463	-0.011139	-0.007324	-0.033264	0.15625	-0.09079	0.006714	-0.10056	0.007935	0.006561	-0.007935	0.27084	-0.10193	0.005188	-0.001221	0.008087	-0.046387	0.16342	-0.1831	0.023804	-0.097656	-0.04776	-0.068207	0.008698	-0.037079	-0.027466	0.070038	0.38635	-0.13916	-0.002747	-0.013428
46.065	-0.015717	0.14114	-0.096283	0.00885	-0.051727	0.083313	-0.050507	0.002594	-0.060272	0.088501	-0.000458	0.006409	0.45532	-0.060883	0.004425	0.013733	0.024719	-0.003052	0.19684	-0.14008	0.019073	-0.078735	0.015106	-0.059052	0.034027	-0.03479	-0.010071	-0.007019	0.15045	0.13901	-0.002441	-0.018005
46.066	-0.020447	0.081787	-0.002289	-0.014496	-0.081482	-0.021973	-0.000153	0.008392	-0.002289	0.047455	0.005188	0.003204	0.15274	-0.039673	0.038605	-0.001831	0.032959	0.006104	-0.004578	-0.046387	0.015869	0.006561	0.074921	-0.059662	0.032043	-0.015869	-0.010223	0.040894	-0.022736	0.23071	-0.000916	-0.00824
46.067	-0.01709	0.093994	-0.024719	-0.000153	-0.082855	-0.18936	0.009003	0.00473	0.056763	-0.012054	0.02655	0.006409	-0.17212	-0.078278	-0.028229	-0.000305	0.021057	-0.034027	0.067291	0.003967	-0.066223	0.06012	0.10239	-0.046539	0.020447	-0.011902	-0.011292	0.10956	-0.18158	0.25116	0.002899	-0.0177
46.068	-0.003052	0.034027	-0.041962	0.003662	-0.047607	-0.29129	-0.003662	0.00061	0.12344	-0.112	0.018463	0.004425	0.003204	-0.13046	-0.13473	0.009155	0.010986	0.027924	0.18082	0.046082	-0.039368	0.083923	0.10437	0.023651	0.00946	-0.009308	0.013123	0.034485	-0.23987	0.14999	0.00351	-0.019836
